<?xml version="1.0" encoding="UTF-8" standalone="no"?>
<!-- Created with Inkscape (http://www.inkscape.org/) -->

<svg
   xmlns:osb="http://www.openswatchbook.org/uri/2009/osb"
   xmlns:dc="http://purl.org/dc/elements/1.1/"
   xmlns:cc="http://creativecommons.org/ns#"
   xmlns:rdf="http://www.w3.org/1999/02/22-rdf-syntax-ns#"
   xmlns:svg="http://www.w3.org/2000/svg"
   xmlns="http://www.w3.org/2000/svg"
   xmlns:xlink="http://www.w3.org/1999/xlink"
   xmlns:sodipodi="http://sodipodi.sourceforge.net/DTD/sodipodi-0.dtd"
   xmlns:inkscape="http://www.inkscape.org/namespaces/inkscape"
   width="40"
   height="40"
   id="svg6115"
   version="1.1"
   inkscape:version="0.48.2 r9819"
   sodipodi:docname="mother.svg">
  <defs
     id="defs6117">
    <linearGradient
       id="linearGradient6718"
       osb:paint="solid">
      <stop
         style="stop-color:#fcfcf9;stop-opacity:1;"
         offset="0"
         id="stop6720" />
    </linearGradient>
    <linearGradient
       id="linearGradient6708"
       osb:paint="solid">
      <stop
         style="stop-color:#faf6fd;stop-opacity:1;"
         offset="0"
         id="stop6710" />
    </linearGradient>
    <linearGradient
       id="linearGradient6668"
       osb:paint="solid">
      <stop
         style="stop-color:#08b2b9;stop-opacity:0.79607844;"
         offset="0"
         id="stop6670" />
    </linearGradient>
    <linearGradient
       id="linearGradient6642"
       osb:paint="solid">
      <stop
         style="stop-color:#0eabab;stop-opacity:0.81176472;"
         offset="0"
         id="stop6644" />
    </linearGradient>
    <linearGradient
       inkscape:collect="always"
       xlink:href="#linearGradient6642"
       id="linearGradient6646"
       x1="14"
       y1="17"
       x2="45"
       y2="17"
       gradientUnits="userSpaceOnUse" />
    <linearGradient
       inkscape:collect="always"
       xlink:href="#linearGradient6668"
       id="linearGradient6672"
       x1="15"
       y1="15"
       x2="25"
       y2="15"
       gradientUnits="userSpaceOnUse" />
    <linearGradient
       inkscape:collect="always"
       xlink:href="#linearGradient6718"
       id="linearGradient6722"
       x1="1.0169621"
       y1="22.711636"
       x2="32.924162"
       y2="22.711636"
       gradientUnits="userSpaceOnUse" />
  </defs>
  <sodipodi:namedview
     id="base"
     pagecolor="#ffffff"
     bordercolor="#666666"
     borderopacity="1.0"
     inkscape:pageopacity="0.0"
     inkscape:pageshadow="2"
     inkscape:zoom="11.125"
     inkscape:cx="20.75521"
     inkscape:cy="24.35887"
     inkscape:document-units="px"
     inkscape:current-layer="layer1"
     showgrid="true"
     inkscape:snap-global="false"
     inkscape:window-width="908"
     inkscape:window-height="695"
     inkscape:window-x="292"
     inkscape:window-y="47"
     inkscape:window-maximized="0">
    <inkscape:grid
       type="xygrid"
       id="grid6125"
       empspacing="5"
       visible="true"
       enabled="true"
       snapvisiblegridlinesonly="true" />
  </sodipodi:namedview>
  <metadata
     id="metadata6120">
    <rdf:RDF>
      <cc:Work
         rdf:about="">
        <dc:format>image/svg+xml</dc:format>
        <dc:type
           rdf:resource="http://purl.org/dc/dcmitype/StillImage" />
        <dc:title />
      </cc:Work>
    </rdf:RDF>
  </metadata>
  <g
     inkscape:label="Layer 1"
     inkscape:groupmode="layer"
     id="layer1"
     transform="translate(0,-1012.3622)">
    <path
       sodipodi:type="arc"
       style="fill:#efde36;fill-opacity:0;fill-rule:nonzero;stroke:none"
       id="path6123"
       sodipodi:cx="21.258427"
       sodipodi:cy="19.460674"
       sodipodi:rx="13.977528"
       sodipodi:ry="13.078651"
       d="m 35.235954,19.460674 c 0,7.22314 -6.257952,13.078652 -13.977527,13.078652 -7.719576,0 -13.977528,-5.855512 -13.977528,-13.078652 0,-7.223139 6.257952,-13.0786511 13.977528,-13.0786511 7.719575,0 13.977527,5.8555121 13.977527,13.0786511 z"
       transform="translate(0,1012.3622)" />
    <path
       sodipodi:type="arc"
       style="fill:url(#linearGradient6646);fill-opacity:1;fill-rule:nonzero;stroke:none"
       id="path6132"
       sodipodi:cx="32.5"
       sodipodi:cy="17"
       sodipodi:rx="12.5"
       sodipodi:ry="17"
       d="M 45,17 C 45,26.388841 39.403559,34 32.5,34 25.596441,34 20,26.388841 20,17 20,7.6111593 25.596441,0 32.5,0 39.403559,0 45,7.6111593 45,17 z"
       transform="matrix(1.6,0,0,1.1764706,-31.745759,1012.3622)" />
    <path
       sodipodi:type="arc"
       style="fill:#f8f8f8;fill-opacity:1;fill-rule:nonzero;stroke:none"
       id="path6650"
       sodipodi:cx="15"
       sodipodi:cy="27.5"
       sodipodi:rx="5"
       sodipodi:ry="7.5"
       d="m 20,27.5 c 0,4.142136 -2.238576,7.5 -5,7.5 -2.761424,0 -5,-3.357864 -5,-7.5 0,-4.142136 2.238576,-7.5 5,-7.5 2.761424,0 5,3.357864 5,7.5 z"
       transform="matrix(2.4025345,0,0,1.296614,-15.593095,1002.3198)" />
    <path
       sodipodi:type="arc"
       style="fill:#0babb4;fill-opacity:0.77777779;fill-rule:nonzero;stroke:none"
       id="path6652"
       sodipodi:cx="17.351923"
       sodipodi:cy="24.491322"
       sodipodi:rx="2.9873276"
       sodipodi:ry="2.7966471"
       d="m 20.339251,24.491322 c 0,1.544545 -1.337473,2.796647 -2.987328,2.796647 -1.649855,0 -2.987328,-1.252102 -2.987328,-2.796647 0,-1.544546 1.337473,-2.796648 2.987328,-2.796648 1.649855,0 2.987328,1.252102 2.987328,2.796648 z"
       transform="matrix(1.1313102,0,0,1.2538995,-5.0642235,1004.9472)" />
    <path
       sodipodi:type="arc"
       style="fill:#f6f8f8;fill-opacity:1;fill-rule:nonzero;stroke:url(#linearGradient6672);stroke-width:0.78149325000000003"
       id="path6648"
       sodipodi:cx="20"
       sodipodi:cy="15"
       sodipodi:rx="5"
       sodipodi:ry="5"
       d="m 25,15 c 0,2.761424 -2.238576,5 -5,5 -2.761424,0 -5,-2.238576 -5,-5 0,-2.761424 2.238576,-5 5,-5 2.761424,0 5,2.238576 5,5 z"
       transform="matrix(1.2669527,0,0,1.2923767,-5.1483729,1004.0571)" />
    <path
       style="fill:#1da0a6;fill-opacity:0.68888891;fill-rule:nonzero;stroke:none"
       id="path6674"
       d="m 24.381113,1042.9252 c -0.516758,0.2662 -1.215761,0.5049 1.299658,-0.5797 0.04982,-0.021 -0.08864,0.056 -0.13042,0.087 -0.09709,0.071 -0.141409,0.1157 -0.227807,0.1948 -0.24931,0.2118 -0.439698,0.4593 -0.653546,0.6924 -0.194862,0.1992 -0.270923,0.4407 -0.364029,0.6763 -0.08271,0.2292 -0.174853,0.4555 -0.279873,0.6789 -0.105513,0.1758 -0.1369,0.3693 -0.206834,0.5538 -0.07285,0.1946 -0.0951,0.3968 -0.108788,0.5984 -0.01017,0.2015 -0.0091,0.4033 -0.0089,0.605 -0.01747,0.1723 0.01135,0.328 0.102166,0.4835 0.09551,0.1205 0.23203,0.2128 0.345536,0.3214 0.158607,0.1342 0.331277,0.2525 0.509306,0.3694 0.175238,0.088 0.350058,0.1764 0.552215,0.2195 0.193465,0.017 0.37828,0.062 0.568801,0.092 l -1.51216,0.8321 0,0 c -0.196473,-0.034 -0.394871,-0.061 -0.589214,-0.1015 -0.210533,-0.065 -0.403026,-0.161 -0.584135,-0.267 -0.186304,-0.1196 -0.35499,-0.2513 -0.525249,-0.385 -0.143406,-0.1084 -0.280853,-0.2219 -0.382072,-0.3581 -0.101547,-0.1751 -0.145871,-0.3512 -0.125495,-0.5451 -2.94e-4,-0.2039 -0.0013,-0.4078 0.0061,-0.6116 0.01049,-0.21 0.02749,-0.4205 0.08796,-0.6258 0.0097,-0.032 0.01942,-0.063 0.02913,-0.095 0.01282,-0.027 0.02937,-0.053 0.03845,-0.08 0.04309,-0.1318 0.05096,-0.2722 0.133045,-0.3958 0.12217,-0.22 0.225731,-0.4466 0.309898,-0.6774 0.09809,-0.2434 0.136462,-0.5033 0.334313,-0.7153 0.210738,-0.2374 0.420794,-0.4757 0.649941,-0.7025 0.576783,-0.5738 1.321451,-0.6344 2.218203,-0.9082 l -1.486186,0.6437 z"
       inkscape:connector-curvature="0"
       sodipodi:nodetypes="ccccccccccccccccccccccccccccccccc" />
    <path
       sodipodi:type="arc"
       style="fill:#0ba8ac;fill-opacity:0.76444447;fill-rule:nonzero;stroke:none"
       id="path6688"
       sodipodi:cx="24.597782"
       sodipodi:cy="28.813412"
       sodipodi:rx="5.0212526"
       sodipodi:ry="5.3390536"
       d="m 29.619035,28.813412 c 0,2.948678 -2.248092,5.339053 -5.021253,5.339053 -2.773161,0 -5.021252,-2.390375 -5.021252,-5.339053 0,-2.948678 2.248091,-5.339054 5.021252,-5.339054 2.773161,0 5.021253,2.390376 5.021253,5.339054 z"
       transform="matrix(1.3544304,0,0,0.71428568,-10.370766,1017.925)" />
    <path
       style="fill:#1ba0aa;fill-opacity:0.72888887;fill-rule:nonzero;stroke:none"
       id="path6702"
       d="m 15.044888,1040.4909 c 0.232791,0.058 0.452579,0.1341 0.67534,0.2209 0.23365,0.1 0.420198,0.2576 0.616919,0.4057 0.230777,0.1888 0.467287,0.3692 0.686868,0.5688 0.208062,0.2031 0.413543,0.41 0.629834,0.6057 0.148032,0.1409 0.287691,0.2915 0.447556,0.4214 0.165753,0.1703 0.320779,0.3485 0.465593,0.5341 0.208976,0.2854 0.431374,0.5635 0.610826,0.8656 0.12459,0.2453 0.302558,0.4619 0.444106,0.698 0.128966,0.235 0.24154,0.4743 0.314529,0.7289 0.06022,0.2384 0.06181,0.4833 0.107748,0.7237 0.05228,0.2335 0.0759,0.4706 0.0893,0.7082 0.01025,0.2329 0.0099,0.4661 0.01,0.6992 0.0012,0.2744 -0.0107,0.5485 -0.01005,0.8229 0.0067,0.1816 0.0095,0.3594 -0.03029,0.5376 l -1.664542,0.7192 0,0 c 0.07531,-0.1637 0.08266,-0.3255 0.07284,-0.5026 9.56e-4,-0.2715 -0.01034,-0.5426 -0.0085,-0.8141 1.51e-4,-0.231 0.04589,-0.3045 0.03874,-0.5354 -0.0096,-0.2308 -0.004,-0.5518 -0.05367,-0.7789 -0.05134,-0.5191 -0.05846,-0.5355 -0.341627,-1.5618 -0.290188,-0.6367 -0.417162,-0.7595 -0.54836,-1.004 -0.291605,-0.5537 -0.843883,-1.2343 -1.011135,-1.3779 -0.841884,-1.0891 -2.050193,-2.0628 -3.701276,-2.746 l 2.159192,0.061 z"
       inkscape:connector-curvature="0"
       sodipodi:nodetypes="ccccccccccccccccccccccccccc" />
    <path
       sodipodi:type="arc"
       style="fill:none;stroke:url(#linearGradient6722);stroke-width:1"
       id="path6714"
       sodipodi:cx="16.970562"
       sodipodi:cy="22.711636"
       sodipodi:rx="15.9536"
       sodipodi:ry="16.2714"
       d="m 32.924162,22.711636 c 0,8.986446 -7.14267,16.2714 -15.9536,16.2714 -8.81093,0 -15.9535999,-7.284954 -15.9535999,-16.2714 0,-8.986447 7.1426699,-16.2714009 15.9535999,-16.2714009 8.81093,0 15.9536,7.2849539 15.9536,16.2714009 z"
       transform="matrix(1.1434263,0,0,1.1328125,0.87110346,1006.6763)" />
  </g>
</svg>
